<svg xmlns="http://www.w3.org/2000/svg" width="24" height="24" viewBox="0 0 24 24" fill="none" stroke="currentColor" stroke-width="1.5" stroke-linecap="round" stroke-linejoin="round">
  <path d="M19.7773 13.5C19.7773 18.5 16.2773 21 12.1173 22.45C11.8995 22.5238 11.6629 22.5202 11.4473 22.44C7.27734 21 3.77734 18.5 3.77734 13.5V6.49996C3.77734 6.23474 3.8827 5.98039 4.07024 5.79285C4.25777 5.60532 4.51213 5.49996 4.77734 5.49996C6.77734 5.49996 9.27734 4.29996 11.0173 2.77996C11.2292 2.59896 11.4987 2.49951 11.7773 2.49951C12.056 2.49951 12.3255 2.59896 12.5373 2.77996C14.2873 4.30996 16.7773 5.49996 18.7773 5.49996C19.0426 5.49996 19.2969 5.60532 19.4845 5.79285C19.672 5.98039 19.7773 6.23474 19.7773 6.49996V13.5Z"/>
  <path d="M11.7773 22.5V2.5"/>
</svg>
