<svg xmlns="http://www.w3.org/2000/svg" width="24" height="24" viewBox="0 0 24 24" fill="none" stroke="currentColor" stroke-width="1.5" stroke-linecap="round" stroke-linejoin="round">
  <path d="M5.77734 22.5C5.24691 22.5 4.7382 22.2893 4.36313 21.9142C3.98806 21.5391 3.77734 21.0304 3.77734 20.5V4.5C3.77734 3.96957 3.98806 3.46086 4.36313 3.08579C4.7382 2.71072 5.24691 2.5 5.77734 2.5H13.7773C14.0939 2.49949 14.4074 2.56161 14.6999 2.68277C14.9923 2.80394 15.2579 2.98176 15.4813 3.206L19.0693 6.794C19.2942 7.01751 19.4725 7.28335 19.594 7.57616C19.7156 7.86898 19.7779 8.18297 19.7773 8.5V20.5C19.7773 21.0304 19.5666 21.5391 19.1916 21.9142C18.8165 22.2893 18.3078 22.5 17.7773 22.5H5.77734Z"/>
  <path d="M13.7773 2.5V7.5C13.7773 7.76522 13.8827 8.01957 14.0702 8.20711C14.2578 8.39464 14.5121 8.5 14.7773 8.5H19.7773"/>
  <path d="M8.77734 15.5L10.7773 17.5L14.7773 13.5"/>
</svg>
