<svg xmlns="http://www.w3.org/2000/svg" width="24" height="24" viewBox="0 0 24 24" fill="none" stroke="currentColor" stroke-width="1.5" stroke-linecap="round" stroke-linejoin="round">
  <path d="M1.77734 21.4999C1.7772 20.2061 2.09086 18.9316 2.69142 17.7856C3.29198 16.6396 4.16153 15.6564 5.2255 14.9202C6.28946 14.1841 7.5161 13.7169 8.80023 13.5589C10.0843 13.4009 11.3876 13.5567 12.5983 14.0129"/>
  <path d="M21.1553 17.1261C21.5537 16.7278 21.7775 16.1875 21.7775 15.6241C21.7775 15.0608 21.5537 14.5205 21.1553 14.1221C20.757 13.7238 20.2167 13.5 19.6533 13.5C19.09 13.5 18.5497 13.7238 18.1513 14.1221L14.1413 18.1341C13.9036 18.3718 13.7295 18.6655 13.6353 18.9881L12.7983 21.8581C12.7732 21.9442 12.7717 22.0354 12.794 22.1222C12.8162 22.2091 12.8614 22.2883 12.9248 22.3517C12.9881 22.4151 13.0674 22.4603 13.1542 22.4825C13.2411 22.5048 13.3323 22.5032 13.4183 22.4781L16.2883 21.6411C16.611 21.5469 16.9047 21.3729 17.1423 21.1351L21.1553 17.1261Z"/>
  <path d="M9.77734 13.5C12.5388 13.5 14.7773 11.2614 14.7773 8.5C14.7773 5.73858 12.5388 3.5 9.77734 3.5C7.01592 3.5 4.77734 5.73858 4.77734 8.5C4.77734 11.2614 7.01592 13.5 9.77734 13.5Z"/>
</svg>
