<svg width="16" height="16" viewBox="0 0 16 16" fill="none" xmlns="http://www.w3.org/2000/svg">
<path d="M9.68932 14.4553C9.71465 14.5184 9.75867 14.5723 9.81549 14.6097C9.87231 14.647 9.9392 14.6661 10.0072 14.6644C10.0752 14.6627 10.141 14.6402 10.1958 14.5999C10.2507 14.5597 10.2919 14.5037 10.3139 14.4393L14.6468 1.77401C14.6681 1.71494 14.6722 1.65102 14.6585 1.58973C14.6449 1.52843 14.614 1.4723 14.5696 1.42789C14.5252 1.38349 14.4691 1.35265 14.4078 1.33898C14.3465 1.32531 14.2826 1.32938 14.2235 1.35072L1.55819 5.68359C1.49386 5.70565 1.43782 5.74686 1.39759 5.80169C1.35735 5.85652 1.33486 5.92235 1.33312 5.99033C1.33138 6.05831 1.35047 6.1252 1.38784 6.18202C1.42522 6.23884 1.47907 6.28287 1.54219 6.30819L6.82829 8.42797C6.9954 8.49487 7.14723 8.59492 7.27462 8.72209C7.40202 8.84925 7.50234 9.0009 7.56955 9.16789L9.68932 14.4553Z" stroke="currentColor" stroke-width="1.33319" stroke-linecap="round" stroke-linejoin="round"/>
<path d="M14.5679 1.43164L7.27539 8.72353" stroke="currentColor" stroke-width="1.33319" stroke-linecap="round" stroke-linejoin="round"/>
</svg>
