<svg width="36" height="36" viewBox="0 0 36 36" fill="none" xmlns="http://www.w3.org/2000/svg">
<path d="M32.5946 27.0003L20.5946 6.00034C20.333 5.53864 19.9536 5.15462 19.495 4.88744C19.0365 4.62026 18.5153 4.47949 17.9846 4.47949C17.454 4.47949 16.9328 4.62026 16.4743 4.88744C16.0157 5.15462 15.6363 5.53864 15.3747 6.00034L3.37465 27.0003C3.11017 27.4584 2.97149 27.9782 2.97266 28.5071C2.97383 29.036 3.11482 29.5552 3.38132 30.0121C3.64782 30.4689 4.03037 30.8472 4.49019 31.1086C4.95001 31.3699 5.47076 31.5051 5.99965 31.5003H29.9997C30.526 31.4998 31.0429 31.3608 31.4986 31.0973C31.9542 30.8337 32.3325 30.455 32.5954 29.999C32.8584 29.543 32.9967 29.0259 32.9966 28.4996C32.9964 27.9732 32.8578 27.4562 32.5946 27.0003Z" stroke="currentColor" stroke-width="2" stroke-linecap="round" stroke-linejoin="round"/>
<path d="M18 13.5V19.5" stroke="currentColor" stroke-width="2" stroke-linecap="round" stroke-linejoin="round"/>
<path d="M18 25.5H18.015" stroke="currentColor" stroke-width="2" stroke-linecap="round" stroke-linejoin="round"/>
</svg>
