<svg width="20" height="20" viewBox="0 0 20 20" fill="none" xmlns="http://www.w3.org/2000/svg">
<path id="Vector" d="M15.8335 4.16675L18.3335 1.66675" stroke="#CB333B" stroke-width="1.66667" stroke-linecap="round" stroke-linejoin="round"/>
<path id="Vector_2" d="M1.6665 18.3333L4.1665 15.8333" stroke="#CB333B" stroke-width="1.66667" stroke-linecap="round" stroke-linejoin="round"/>
<path id="Vector_3" d="M5.25003 16.9167C5.43583 17.1031 5.65662 17.2511 5.89972 17.352C6.14283 17.4529 6.40347 17.5049 6.66669 17.5049C6.92992 17.5049 7.19056 17.4529 7.43366 17.352C7.67677 17.2511 7.89755 17.1031 8.08336 16.9167L10 15L5.00003 10L3.08336 11.9167C2.89691 12.1025 2.74897 12.3233 2.64802 12.5664C2.54708 12.8095 2.49512 13.0701 2.49512 13.3333C2.49512 13.5966 2.54708 13.8572 2.64802 14.1003C2.74897 14.3434 2.89691 14.5642 3.08336 14.75L5.25003 16.9167Z" stroke="#CB333B" stroke-width="1.66667" stroke-linecap="round" stroke-linejoin="round"/>
<path id="Vector_4" d="M6.25 11.2501L8.33333 9.16675" stroke="#CB333B" stroke-width="1.66667" stroke-linecap="round" stroke-linejoin="round"/>
<path id="Vector_5" d="M8.75 13.7501L10.8333 11.6667" stroke="#CB333B" stroke-width="1.66667" stroke-linecap="round" stroke-linejoin="round"/>
<path id="Vector_6" d="M10 5.00003L15 10L16.9167 8.08336C17.1031 7.89755 17.2511 7.67677 17.352 7.43366C17.4529 7.19056 17.5049 6.92992 17.5049 6.66669C17.5049 6.40347 17.4529 6.14283 17.352 5.89972C17.2511 5.65662 17.1031 5.43583 16.9167 5.25003L14.75 3.08336C14.5642 2.89691 14.3434 2.74897 14.1003 2.64802C13.8572 2.54708 13.5966 2.49512 13.3333 2.49512C13.0701 2.49512 12.8095 2.54708 12.5664 2.64802C12.3233 2.74897 12.1025 2.89691 11.9167 3.08336L10 5.00003Z" stroke="#CB333B" stroke-width="1.66667" stroke-linecap="round" stroke-linejoin="round"/>
</svg>
