<svg width="20" height="20" viewBox="0 0 20 20" fill="none" xmlns="http://www.w3.org/2000/svg">
<path id="Vector" d="M13.3337 17.5V15.8333C13.3337 14.9493 12.9825 14.1014 12.3573 13.4763C11.7322 12.8512 10.8844 12.5 10.0003 12.5H5.00033C4.11627 12.5 3.26842 12.8512 2.6433 13.4763C2.01818 14.1014 1.66699 14.9493 1.66699 15.8333V17.5" stroke="#CB333B" stroke-width="1.66667" stroke-linecap="round" stroke-linejoin="round"/>
<path id="Vector_2" d="M7.50033 9.16667C9.34127 9.16667 10.8337 7.67428 10.8337 5.83333C10.8337 3.99238 9.34127 2.5 7.50033 2.5C5.65938 2.5 4.16699 3.99238 4.16699 5.83333C4.16699 7.67428 5.65938 9.16667 7.50033 9.16667Z" stroke="#CB333B" stroke-width="1.66667" stroke-linecap="round" stroke-linejoin="round"/>
<path id="Vector_3" d="M14.167 6.66675L18.3337 10.8334" stroke="#CB333B" stroke-width="1.66667" stroke-linecap="round" stroke-linejoin="round"/>
<path id="Vector_4" d="M18.3337 6.66675L14.167 10.8334" stroke="#CB333B" stroke-width="1.66667" stroke-linecap="round" stroke-linejoin="round"/>
</svg>
